<svg xmlns="http://www.w3.org/2000/svg" enable-background="new 0 0 60 60" viewBox="0 0 60 60" id="apple-setting"><g><path fill="#FFF" d="M50,60H10C4.477,60,0,55.523,0,50V10C0,4.477,4.477,0,10,0h40c5.523,0,10,4.477,10,10v40
		C60,55.523,55.523,60,50,60z"></path></g><g><path fill="#CDCCFF" d="M57,35v-4l-4.316-1.439c-0.205-1.182-0.516-2.324-0.918-3.425l3.019-3.405l-2-3.464l-4.443,0.909
		c-0.763-0.912-1.606-1.755-2.518-2.519l0.909-4.443l-3.464-2l-3.405,3.019c-1.101-0.403-2.243-0.713-3.425-0.918L35,9h-4
		l-1.439,4.316c-1.182,0.205-2.324,0.516-3.425,0.918l-3.405-3.019l-3.464,2l0.909,4.443c-0.912,0.763-1.755,1.606-2.518,2.519
		l-4.443-0.909l-2,3.464l3.019,3.405c-0.403,1.101-0.713,2.243-0.918,3.425L9,31v4l4.316,1.439c0.205,1.182,0.516,2.324,0.918,3.425
		l-3.019,3.405l2,3.464l4.443-0.909c0.763,0.912,1.606,1.755,2.518,2.519l-0.909,4.443l3.464,2l3.405-3.019
		c1.101,0.403,2.243,0.713,3.425,0.918L31,57h4l1.439-4.316c1.182-0.205,2.324-0.516,3.425-0.918l3.405,3.019l3.464-2l-0.909-4.443
		c0.912-0.763,1.755-1.606,2.518-2.519l4.443,0.909l2-3.464l-3.019-3.405c0.403-1.101,0.713-2.243,0.918-3.425L57,35z"></path><path fill="#3A3AAF" d="M32,55.5h-4c-0.646,0-1.219-0.413-1.423-1.025l-1.162-3.487c-0.65-0.143-1.298-0.316-1.937-0.52
		l-2.751,2.439c-0.483,0.431-1.187,0.5-1.745,0.177l-3.465-2c-0.56-0.322-0.849-0.967-0.72-1.6l0.734-3.588
		c-0.498-0.454-0.976-0.932-1.429-1.43l-3.587,0.735c-0.632,0.131-1.277-0.159-1.6-0.72l-2-3.465
		c-0.323-0.56-0.252-1.262,0.177-1.745l2.438-2.751c-0.203-0.639-0.377-1.286-0.52-1.937l-3.487-1.162
		C4.913,33.219,4.5,32.646,4.5,32v-4c0-0.646,0.413-1.219,1.025-1.423l3.487-1.162c0.143-0.65,0.316-1.298,0.52-1.937l-2.438-2.751
		c-0.429-0.483-0.5-1.186-0.177-1.745l2-3.465c0.322-0.56,0.966-0.851,1.6-0.72l3.587,0.735c0.453-0.498,0.931-0.976,1.429-1.43
		l-0.734-3.588c-0.129-0.633,0.16-1.277,0.72-1.6l3.465-2c0.558-0.321,1.262-0.253,1.745,0.177l2.751,2.439
		c0.639-0.203,1.286-0.377,1.937-0.52l1.162-3.487C26.781,4.913,27.354,4.5,28,4.5h4c0.646,0,1.219,0.413,1.423,1.025l1.162,3.487
		c0.65,0.143,1.298,0.316,1.937,0.52l2.751-2.439c0.484-0.429,1.188-0.498,1.745-0.177l3.465,2c0.56,0.322,0.849,0.967,0.72,1.6
		l-0.734,3.588c0.498,0.454,0.976,0.932,1.429,1.43l3.587-0.735c0.635-0.129,1.277,0.161,1.6,0.72l2,3.465
		c0.323,0.56,0.252,1.262-0.177,1.745l-2.438,2.751c0.203,0.639,0.377,1.286,0.52,1.937l3.487,1.162
		C55.087,26.781,55.5,27.354,55.5,28v4c0,0.646-0.413,1.219-1.025,1.423l-3.487,1.162c-0.143,0.65-0.316,1.298-0.52,1.937
		l2.438,2.751c0.429,0.483,0.5,1.186,0.177,1.745l-2,3.465c-0.322,0.56-0.967,0.849-1.6,0.72l-3.587-0.735
		c-0.453,0.498-0.931,0.976-1.429,1.43l0.734,3.588c0.129,0.633-0.16,1.277-0.72,1.6l-3.465,2c-0.558,0.322-1.262,0.253-1.745-0.177
		l-2.751-2.439c-0.639,0.203-1.286,0.377-1.937,0.52l-1.162,3.487C33.219,55.087,32.646,55.5,32,55.5z M29.081,52.5h1.838
		l1.097-3.291c0.175-0.523,0.622-0.909,1.166-1.003c1.066-0.186,2.132-0.471,3.167-0.85c0.516-0.188,1.099-0.078,1.51,0.287
		l2.596,2.302l1.592-0.919l-0.692-3.384c-0.11-0.54,0.084-1.097,0.507-1.451c0.844-0.706,1.627-1.49,2.329-2.331
		c0.354-0.423,0.913-0.619,1.452-0.508l3.384,0.693l0.919-1.592l-2.301-2.596c-0.366-0.412-0.476-0.992-0.287-1.51
		c0.379-1.035,0.664-2.101,0.85-3.167c0.094-0.544,0.479-0.991,1.003-1.166l3.291-1.097v-1.838l-3.291-1.097
		c-0.523-0.175-0.909-0.622-1.003-1.166c-0.186-1.066-0.471-2.132-0.85-3.167c-0.188-0.518-0.079-1.098,0.287-1.51l2.301-2.596
		l-0.919-1.592l-3.384,0.693c-0.539,0.111-1.099-0.084-1.452-0.508c-0.702-0.841-1.485-1.625-2.329-2.331
		c-0.423-0.354-0.617-0.911-0.507-1.451l0.692-3.384l-1.592-0.919l-2.596,2.302c-0.411,0.365-0.994,0.475-1.51,0.287
		c-1.035-0.379-2.101-0.664-3.167-0.85c-0.544-0.094-0.991-0.479-1.166-1.003L30.919,7.5h-1.838l-1.097,3.291
		c-0.175,0.523-0.622,0.909-1.166,1.003c-1.066,0.186-2.132,0.471-3.167,0.85c-0.516,0.188-1.099,0.078-1.51-0.287l-2.596-2.302
		l-1.592,0.919l0.692,3.384c0.11,0.54-0.084,1.097-0.507,1.451c-0.844,0.706-1.627,1.49-2.329,2.331
		c-0.354,0.424-0.912,0.619-1.452,0.508l-3.384-0.693l-0.919,1.592l2.301,2.596c0.366,0.412,0.476,0.992,0.287,1.51
		c-0.379,1.035-0.664,2.101-0.85,3.167c-0.094,0.544-0.479,0.991-1.003,1.166L7.5,29.081v1.838l3.291,1.097
		c0.523,0.175,0.909,0.622,1.003,1.166c0.186,1.066,0.471,2.132,0.85,3.167c0.188,0.518,0.079,1.098-0.287,1.51l-2.301,2.596
		l0.919,1.592l3.384-0.693c0.54-0.111,1.099,0.085,1.452,0.508c0.702,0.841,1.485,1.625,2.329,2.331
		c0.423,0.354,0.617,0.911,0.507,1.451l-0.692,3.384l1.592,0.919l2.596-2.302c0.411-0.365,0.994-0.475,1.51-0.287
		c1.035,0.379,2.101,0.664,3.167,0.85c0.544,0.094,0.991,0.479,1.166,1.003L29.081,52.5z M54,32h0.01H54z"></path><g><path fill="#FFF" d="M44,30c0,1.836-0.363,3.586-1.006,5.193L32,28.845V16.159C38.782,17.132,44,22.949,44,30z"></path><path fill="#3A3AAF" d="M42.994,35.942c-0.13,0-0.26-0.034-0.375-0.101l-10.994-6.347c-0.232-0.134-0.375-0.382-0.375-0.649
			V16.159c0-0.218,0.095-0.424,0.259-0.566c0.163-0.142,0.384-0.203,0.598-0.176C39.314,16.45,44.75,22.72,44.75,30
			c0,1.873-0.356,3.713-1.06,5.471c-0.081,0.202-0.245,0.359-0.451,0.431C43.16,35.929,43.077,35.942,42.994,35.942z M32.75,28.413
			l9.845,5.683C43.03,32.767,43.25,31.394,43.25,30c0-6.247-4.457-11.666-10.5-12.946V28.413z"></path></g><g><path fill="#FFF" d="M28,16.159v12.686l-10.994,6.347C16.363,33.586,16,31.836,16,30C16,22.949,21.218,17.132,28,16.159z"></path><path fill="#3A3AAF" d="M17.006,35.942c-0.083,0-0.166-0.014-0.245-0.041c-0.206-0.071-0.37-0.229-0.451-0.431
			c-0.703-1.758-1.06-3.598-1.06-5.471c0-7.28,5.436-13.55,12.644-14.583c0.215-0.027,0.434,0.034,0.598,0.176
			c0.164,0.143,0.259,0.349,0.259,0.566v12.687c0,0.268-0.143,0.516-0.375,0.649l-10.994,6.347
			C17.266,35.908,17.136,35.942,17.006,35.942z M27.25,17.054c-6.043,1.28-10.5,6.699-10.5,12.946c0,1.394,0.22,2.767,0.655,4.096
			l9.845-5.683V17.054z"></path></g><g><path fill="#FFF" d="M30,44c-4.462,0-8.427-2.094-10.99-5.345L30,32.309l10.99,6.345C38.427,41.906,34.462,44,30,44z"></path><path fill="#3A3AAF" d="M30,44.75c-4.538,0-8.758-2.053-11.579-5.632c-0.135-0.171-0.188-0.392-0.147-0.605
			s0.173-0.399,0.361-0.508l10.99-6.345c0.232-0.135,0.518-0.135,0.75,0l10.99,6.345c0.188,0.108,0.32,0.294,0.361,0.508
			s-0.013,0.435-0.147,0.605C38.758,42.697,34.538,44.75,30,44.75z M20.159,38.856c2.517,2.803,6.056,4.394,9.841,4.394
			s7.324-1.591,9.841-4.394L30,33.176L20.159,38.856z"></path></g></g></svg>