<svg xmlns="http://www.w3.org/2000/svg" enable-background="new 0 0 60 60" viewBox="0 0 60 60" id="notes"><g><path fill="#FFF" d="M50,60H10C4.477,60,0,55.523,0,50V10C0,4.477,4.477,0,10,0h40c5.523,0,10,4.477,10,10v40
		C60,55.523,55.523,60,50,60z"></path></g><g><path fill="#FFCBBB" d="M55.03,51.17C54.51,53.98,52,56,49.14,56H18.86c-2.86,0-5.37-2.02-5.89-4.83
		c-1.78-9.63-2.05-19.47-0.8-29.17h43.66C57.08,31.7,56.81,41.54,55.03,51.17z"></path><path fill="#FC6030" d="M45.14,53.5H14.86c-3.618,0-6.716-2.547-7.365-6.057c-1.811-9.799-2.084-19.77-0.812-29.635
		C6.778,17.061,7.416,16.5,8.17,16.5h43.66c0.754,0,1.392,0.561,1.487,1.309c1.271,9.865,0.998,19.836-0.812,29.634c0,0,0,0,0,0.001
		C51.855,50.953,48.758,53.5,45.14,53.5z M9.498,19.5c-1.045,9.129-0.728,18.339,0.946,27.397c0.387,2.087,2.244,3.603,4.416,3.603
		H45.14c2.172,0,4.029-1.516,4.416-3.604c1.674-9.058,1.991-18.268,0.946-27.396H9.498z M51.03,47.17h0.01H51.03z"></path><path fill="#3A3AAF" d="M51.83,19.5H8.17c-0.43,0-0.838-0.184-1.123-0.505c-0.284-0.321-0.418-0.75-0.366-1.176
		c0.207-1.706,0.474-3.428,0.814-5.263C8.145,9.047,11.242,6.5,14.86,6.5H45.14c3.618,0,6.716,2.547,7.365,6.057
		c0.341,1.835,0.607,3.557,0.814,5.263c0.052,0.426-0.082,0.854-0.366,1.176C52.668,19.316,52.26,19.5,51.83,19.5z M9.882,16.5
		h40.236c-0.159-1.102-0.345-2.225-0.562-3.396C49.169,11.016,47.312,9.5,45.14,9.5H14.86c-2.172,0-4.029,1.516-4.416,3.604
		C10.227,14.275,10.041,15.398,9.882,16.5z"></path><path fill="#FC6030" d="M16 26.75h-2c-.414 0-.75-.336-.75-.75s.336-.75.75-.75h2c.414 0 .75.336.75.75S16.414 26.75 16 26.75zM22 26.75h-2c-.414 0-.75-.336-.75-.75s.336-.75.75-.75h2c.414 0 .75.336.75.75S22.414 26.75 22 26.75zM28 26.75h-2c-.414 0-.75-.336-.75-.75s.336-.75.75-.75h2c.414 0 .75.336.75.75S28.414 26.75 28 26.75zM34 26.75h-2c-.414 0-.75-.336-.75-.75s.336-.75.75-.75h2c.414 0 .75.336.75.75S34.414 26.75 34 26.75zM40 26.75h-2c-.414 0-.75-.336-.75-.75s.336-.75.75-.75h2c.414 0 .75.336.75.75S40.414 26.75 40 26.75zM46 26.75h-2c-.414 0-.75-.336-.75-.75s.336-.75.75-.75h2c.414 0 .75.336.75.75S46.414 26.75 46 26.75zM46 34.75H14c-.414 0-.75-.336-.75-.75s.336-.75.75-.75h32c.414 0 .75.336.75.75S46.414 34.75 46 34.75zM46 42.75H14c-.414 0-.75-.336-.75-.75s.336-.75.75-.75h32c.414 0 .75.336.75.75S46.414 42.75 46 42.75z"></path></g></svg>