<svg xmlns="http://www.w3.org/2000/svg" enable-background="new 0 0 60 60" viewBox="0 0 60 60" id="health"><g><path fill="#FFF" d="M50,60H10C4.477,60,0,55.523,0,50V10C0,4.477,4.477,0,10,0h40c5.523,0,10,4.477,10,10v40
		C60,55.523,55.523,60,50,60z"></path></g><g><path fill="#FFBDCC" d="M47.698,53.841c-9.752,1.783-19.504,1.783-29.257,0c-3.333-0.61-5.925-3.201-6.534-6.534
		c-1.783-9.752-1.783-19.504,0-29.257c0.61-3.333,3.201-5.925,6.534-6.534c9.752-1.783,19.504-1.783,29.257,0
		c3.333,0.61,5.925,3.201,6.534,6.534c1.783,9.752,1.783,19.504,0,29.257C53.623,50.64,51.031,53.232,47.698,53.841z"></path><path fill="#EB2060" d="M30,53.994c-4.978,0-9.955-0.452-14.897-1.355c-3.976-0.727-7.014-3.765-7.74-7.74
		c-1.809-9.885-1.809-19.911,0-29.796c0.727-3.975,3.765-7.013,7.74-7.74c9.885-1.809,19.91-1.808,29.795,0
		c3.976,0.727,7.014,3.765,7.74,7.74c1.809,9.885,1.809,19.911,0,29.796c-0.727,3.975-3.766,7.013-7.74,7.74l0,0
		C39.955,53.542,34.978,53.994,30,53.994z M30,9.006c-4.797,0-9.595,0.436-14.358,1.307c-2.736,0.5-4.828,2.592-5.328,5.329
		c-1.743,9.527-1.743,19.189,0,28.717c0.5,2.737,2.592,4.829,5.328,5.329c9.527,1.742,19.189,1.742,28.717,0l0,0
		c2.736-0.5,4.828-2.592,5.328-5.329c1.743-9.527,1.743-19.189,0-28.717c-0.5-2.737-2.592-4.829-5.328-5.329
		C39.595,9.442,34.797,9.006,30,9.006z"></path><g><path fill="#FFF" d="M46,20c0-3.314-2.686-6-6-6c-2.088,0-3.925,1.068-5,2.686C33.925,15.068,32.088,14,30,14
			c-3.314,0-6,2.686-6,6c0,1.806,0.802,3.422,2.065,4.522h-0.008l8.286,7.231h0.019C34.536,31.901,34.754,32,35,32
			s0.464-0.099,0.638-0.246h0.019l8.286-7.231h-0.008C45.198,23.422,46,21.806,46,20z"></path><path fill="#EB2060" d="M35,32.75c-0.364,0-0.713-0.117-1.016-0.34c-0.049-0.025-0.095-0.056-0.135-0.091l-8.286-7.231
			c-0.025-0.022-0.049-0.045-0.07-0.069C24.066,23.736,23.25,21.913,23.25,20c0-3.722,3.028-6.75,6.75-6.75
			c1.924,0,3.729,0.814,5,2.217c1.271-1.403,3.076-2.217,5-2.217c3.722,0,6.75,3.028,6.75,6.75c0,1.914-0.816,3.736-2.244,5.019
			c-0.021,0.024-0.045,0.047-0.069,0.069l-8.286,7.231c-0.045,0.039-0.094,0.073-0.146,0.1C35.704,32.636,35.359,32.75,35,32.75z
			 M34.748,31.112c0.036,0.021,0.069,0.044,0.1,0.07c0.105,0.09,0.199,0.09,0.305,0c0.033-0.028,0.068-0.053,0.104-0.075
			l8.119-7.085c0.021-0.023,0.042-0.045,0.066-0.066c1.148-1,1.808-2.442,1.808-3.957c0-2.895-2.355-5.25-5.25-5.25
			c-1.763,0-3.398,0.879-4.375,2.351c-0.277,0.418-0.973,0.418-1.25,0C33.398,15.629,31.763,14.75,30,14.75
			c-2.895,0-5.25,2.355-5.25,5.25c0,1.514,0.659,2.957,1.808,3.957c0.024,0.021,0.047,0.043,0.067,0.066L34.748,31.112z"></path></g></g></svg>