<svg xmlns="http://www.w3.org/2000/svg" enable-background="new 0 0 60 60" viewBox="0 0 60 60" id="apple-books"><g><path fill="#FFF" d="M50,60H10C4.477,60,0,55.523,0,50V10C0,4.477,4.477,0,10,0h40c5.523,0,10,4.477,10,10v40
		C60,55.523,55.523,60,50,60z"></path></g><g><path fill="#FFCBBB" d="M33,53c-8-2.667-16-2.667-24,0C6.731,41.782,5.933,30.056,9,17c8-2.667,16-2.667,24,0V53z"></path><path fill="#FC6030" d="M30,51.5c-0.159,0-0.319-0.025-0.474-0.077c-7.648-2.549-15.403-2.549-23.052,0
		c-0.405,0.137-0.853,0.091-1.226-0.125c-0.372-0.215-0.634-0.58-0.719-1.001c-2.714-13.414-2.71-25.057,0.01-36.64
		c0.119-0.507,0.492-0.916,0.986-1.08c8.277-2.76,16.671-2.76,24.948,0C31.087,12.781,31.5,13.354,31.5,14v36
		c0,0.482-0.232,0.935-0.623,1.217C30.618,51.403,30.311,51.5,30,51.5z M7.271,15.167C4.949,25.576,4.909,36.096,7.152,48.071
		c7.09-2.05,14.254-2.083,21.348-0.099V15.097C21.451,12.959,14.319,12.983,7.271,15.167z"></path><path fill="#FC6030" d="M30,51.5c-0.311,0-0.618-0.097-0.877-0.283C28.732,50.935,28.5,50.482,28.5,50V14
		c0-0.646,0.413-1.219,1.026-1.423c8.277-2.76,16.671-2.76,24.948,0c0.494,0.165,0.867,0.573,0.986,1.08
		c2.72,11.583,2.724,23.227,0.01,36.64c-0.085,0.421-0.347,0.786-0.719,1.001c-0.373,0.215-0.819,0.26-1.226,0.125
		c-7.648-2.549-15.403-2.549-23.052,0C30.319,51.475,30.159,51.5,30,51.5z M42,46.508c3.623,0,7.245,0.521,10.848,1.563
		c2.244-11.975,2.204-22.495-0.119-32.904c-7.048-2.183-14.18-2.207-21.229-0.07v32.875C34.989,46.996,38.494,46.508,42,46.508z"></path><g><path fill="#FC6030" d="M47.997 22.75c-.058 0-.117-.006-.176-.021-3.808-.915-7.835-.915-11.643 0-.407.094-.808-.152-.905-.554-.097-.403.152-.808.554-.905 4.038-.969 8.306-.969 12.344 0 .402.097.651.502.554.905C48.643 22.519 48.336 22.75 47.997 22.75zM47.997 30.75c-.058 0-.117-.006-.176-.021-3.808-.915-7.835-.915-11.643 0-.407.094-.808-.152-.905-.554-.097-.403.152-.808.554-.905 4.038-.969 8.306-.969 12.344 0 .402.097.651.502.554.905C48.643 30.519 48.336 30.75 47.997 30.75zM47.997 38.75c-.058 0-.117-.006-.176-.021-3.808-.915-7.835-.915-11.643 0-.407.094-.808-.152-.905-.554-.097-.403.152-.808.554-.905 4.038-.969 8.306-.969 12.344 0 .402.097.651.502.554.905C48.643 38.519 48.336 38.75 47.997 38.75zM23.997 22.75c-.058 0-.117-.006-.176-.021-3.808-.915-7.835-.915-11.643 0-.408.094-.808-.152-.905-.554-.097-.403.152-.808.554-.905 4.038-.969 8.306-.969 12.344 0 .402.097.651.502.554.905C24.643 22.519 24.336 22.75 23.997 22.75zM23.997 30.75c-.058 0-.117-.006-.176-.021-3.808-.915-7.835-.915-11.643 0-.408.094-.808-.152-.905-.554-.097-.403.152-.808.554-.905 4.038-.969 8.306-.969 12.344 0 .402.097.651.502.554.905C24.643 30.519 24.336 30.75 23.997 30.75zM23.997 38.75c-.058 0-.117-.006-.176-.021-3.808-.915-7.835-.915-11.643 0-.408.094-.808-.152-.905-.554-.097-.403.152-.808.554-.905 4.038-.969 8.306-.969 12.344 0 .402.097.651.502.554.905C24.643 38.519 24.336 38.75 23.997 38.75z"></path></g></g></svg>